<svg width="23" height="23" viewBox="0 0 23 23" fill="none" xmlns="http://www.w3.org/2000/svg">
<path d="M11.5 0.5C5.43078 0.5 0.5 5.43078 0.5 11.5C0.5 17.0096 4.56377 21.5692 9.85645 22.3643L10.4307 22.4512V13.7832H7.83203V12.0234H10.4307V9.68652C10.4307 8.24748 10.776 7.29971 11.3477 6.70508C11.9193 6.11045 12.764 5.81055 13.9395 5.81055C14.8794 5.81055 15.245 5.8675 15.5928 5.91016V7.35059H14.3691C13.6748 7.35059 13.1052 7.73795 12.8096 8.25391C12.5139 8.76986 12.4219 9.38591 12.4219 10.0137V12.0225H15.4834L15.2109 13.7822H12.4219V22.4648L12.9893 22.3877C18.3572 21.6597 22.5 17.0634 22.5 11.5C22.5 5.43078 17.5692 0.5 11.5 0.5ZM11.5 1.5C17.0288 1.5 21.5 5.97122 21.5 11.5C21.5 16.3649 18.0179 20.3659 13.4219 21.2666V14.7822H16.0684L16.6494 11.0225H13.4219V10.0137C13.4219 9.49494 13.5168 9.03015 13.6768 8.75098C13.8367 8.47181 13.9909 8.35059 14.3691 8.35059H16.5928V5.00488L16.1592 4.94629C15.8593 4.90571 15.1746 4.81055 13.9395 4.81055C12.5879 4.81055 11.4278 5.17872 10.627 6.01172C9.82612 6.84471 9.43066 8.08506 9.43066 9.68652V11.0234H6.83203V14.7832H9.43066V21.2354C4.9085 20.2774 1.5 16.3122 1.5 11.5C1.5 5.97122 5.97122 1.5 11.5 1.5Z" fill="white"/>
</svg>
