<svg width="17" height="15" viewBox="0 0 17 15" fill="none" xmlns="http://www.w3.org/2000/svg">
<path d="M7.14697 1.34886C7.85254 1.34886 8.53182 1.44663 9.17375 1.62762C9.27612 1.65668 9.37988 1.68839 9.48503 1.72274C9.60124 1.76105 9.71607 1.80201 9.82951 1.8456L9.3619 2.66602C8.67432 2.41369 7.92863 2.27629 7.14836 2.27629H7.14697C6.29476 2.27629 5.48267 2.44143 4.7439 2.74C4.62354 2.78888 4.50456 2.84041 4.38973 2.8959C3.79207 3.18126 3.24976 3.55646 2.78215 4.00299L2.77938 4.00564C2.62443 4.1536 2.4764 4.31081 2.33944 4.47463C2.20109 4.63977 2.07105 4.81152 1.95068 4.98987C1.32951 5.90937 0.971191 7.00194 0.971191 8.17377V8.17509C0.971191 8.9889 1.14412 9.7644 1.45679 10.4699C1.50798 10.5848 1.56193 10.6984 1.62004 10.8081C1.91886 11.3775 2.31177 11.8967 2.78076 12.3432L2.78353 12.3459C2.93848 12.4938 3.10311 12.6352 3.27466 12.7673C3.44759 12.8994 3.62744 13.0236 3.81421 13.1385C4.77572 13.7278 5.91984 14.0699 7.14697 14.0699H7.14836C8.00057 14.0699 8.81266 13.9048 9.55143 13.6062C9.67179 13.5573 9.79077 13.5058 9.9056 13.4503C10.5033 13.165 11.0456 12.7898 11.5132 12.3432H11.5146L11.5187 12.3393C11.6737 12.1913 11.8203 12.0354 11.9587 11.8716C12.097 11.7064 12.2271 11.5347 12.3474 11.3563C12.9644 10.4395 13.3228 9.34825 13.3228 8.17773L14.2926 8.03505C14.2939 8.08129 14.2939 8.12753 14.2939 8.17377V8.17509C14.2939 9.11705 14.0933 10.0154 13.7323 10.8305C13.6742 10.9627 13.6105 11.0934 13.5427 11.2229C13.1969 11.8835 12.7417 12.4833 12.2008 12.9998L12.198 13.0025C12.0181 13.1742 11.8272 13.338 11.6294 13.49C11.4302 13.6432 11.2213 13.7872 11.0055 13.9193C9.89315 14.6023 8.56917 14.9987 7.14836 14.9987C6.16195 14.9987 5.22119 14.8071 4.36759 14.4623C4.22925 14.4068 4.09229 14.346 3.95671 14.2813C3.26497 13.951 2.63688 13.5164 2.09595 12.9998L2.09318 12.9959C1.91333 12.8241 1.74316 12.6431 1.58268 12.4529C1.4222 12.2626 1.2714 12.0631 1.13306 11.8571C0.415039 10.7949 0 9.53056 0 8.17377V8.17245C0 7.23049 0.200602 6.33345 0.561686 5.517C0.619792 5.38489 0.683431 5.25409 0.751221 5.12463C1.09709 4.46407 1.55225 3.86428 2.09318 3.34772L2.09595 3.34508C2.2758 3.17333 2.46672 3.01083 2.66455 2.85758C2.86377 2.70433 3.07267 2.56033 3.28849 2.42822C4.40218 1.7452 5.72616 1.34886 7.14697 1.34886ZM7.73079 7.86595L12.216 0L12.7957 4.46671L17 6.49991L7.73079 7.86595ZM7.14697 6.01374H7.14836C7.24797 6.01374 7.34619 6.02034 7.44165 6.03223L6.91178 6.9623C6.81909 6.97816 6.72917 7.00458 6.64478 7.03893C6.61987 7.0495 6.59497 7.06007 6.57007 7.07196C6.44556 7.13141 6.33211 7.20935 6.23389 7.30315L6.23112 7.30579C6.1993 7.33618 6.17025 7.36789 6.14119 7.40092C6.11214 7.43526 6.08447 7.47093 6.05957 7.50925C5.93091 7.70081 5.8562 7.92936 5.8562 8.17377V8.17509C5.8562 8.34552 5.89217 8.50669 5.95858 8.65466C5.96965 8.67976 5.98071 8.70354 5.99316 8.726C6.05542 8.8449 6.13704 8.95323 6.23527 9.04703L6.23804 9.04967C6.26986 9.08006 6.30306 9.10912 6.33765 9.13555C6.37362 9.16329 6.41097 9.18971 6.45109 9.21349C6.65169 9.33636 6.89103 9.4077 7.14697 9.4077C7.32544 9.4077 7.49422 9.37335 7.64917 9.31126C7.67546 9.30069 7.69898 9.29012 7.72388 9.27823C7.84839 9.21878 7.96183 9.14083 8.06006 9.04703L8.06283 9.04439C8.08081 9.02721 8.09741 9.01004 8.11263 8.99419C8.12785 8.97833 8.14307 8.95984 8.15829 8.94134L9.32178 8.7696C9.29688 8.85415 9.26644 8.93738 9.23047 9.01664C9.21248 9.0576 9.19173 9.09988 9.17098 9.14083C9.06169 9.35089 8.91781 9.53981 8.74626 9.70363L8.74211 9.70627C8.68538 9.75911 8.62728 9.81064 8.56502 9.8582C8.50138 9.90708 8.43636 9.952 8.36719 9.99427C8.0144 10.2096 7.5966 10.3351 7.14697 10.3351C6.83431 10.3351 6.53687 10.2744 6.26709 10.1647C6.2242 10.1475 6.17993 10.1277 6.13704 10.1079C5.91707 10.0035 5.71924 9.86613 5.54769 9.70231L5.54354 9.69834C5.4882 9.6455 5.43424 9.58869 5.38444 9.52924C5.33325 9.46847 5.28621 9.40637 5.24194 9.34032C5.01644 9.00475 4.88501 8.60445 4.88501 8.17509V8.17377C4.88501 7.8752 4.94865 7.59116 5.06348 7.33354C5.08146 7.29258 5.10221 7.25031 5.12297 7.20935C5.23226 7.00062 5.37614 6.81037 5.54769 6.64788C5.60441 6.59371 5.66528 6.54219 5.72892 6.49331C5.79256 6.44442 5.85758 6.39951 5.92676 6.35723C6.27816 6.13925 6.69735 6.01374 7.14697 6.01374ZM7.14697 3.66214C7.57031 3.66214 7.97982 3.71499 8.36857 3.81539C8.43221 3.83125 8.49447 3.84842 8.55672 3.86824C8.58992 3.87881 8.62451 3.88938 8.65772 3.89995L8.18457 4.73093C7.85531 4.6411 7.50667 4.59221 7.14559 4.59221C6.62817 4.59221 6.13428 4.69262 5.68465 4.87361C5.6141 4.90268 5.54215 4.93438 5.46883 4.96873L5.4633 4.97137C5.10221 5.14444 4.77572 5.37167 4.49211 5.6425L4.48934 5.64515C4.39526 5.73498 4.30672 5.8301 4.22233 5.92919C4.13794 6.02959 4.05908 6.13396 3.98576 6.24229C3.61084 6.79981 3.39364 7.46433 3.39364 8.17641V8.17773C3.39364 8.67183 3.49878 9.14347 3.68831 9.57284C3.71875 9.64286 3.75195 9.71155 3.78792 9.77893C3.96916 10.1251 4.2085 10.4395 4.49349 10.7116C4.58895 10.8028 4.68994 10.8887 4.7937 10.9693C4.89884 11.0498 5.00814 11.1252 5.12158 11.1952C5.7054 11.5506 6.40129 11.758 7.14697 11.758H7.14836C7.66577 11.758 8.15967 11.6576 8.60929 11.4766C8.68262 11.4475 8.75456 11.4158 8.82511 11.3814C9.18758 11.2084 9.51685 10.9798 9.80184 10.7077C9.8973 10.6165 9.98861 10.5201 10.0716 10.421C10.156 10.3206 10.2349 10.2162 10.3082 10.1079C10.6195 9.6455 10.8215 9.11177 10.8823 8.53708L11.8674 8.39176C11.8397 8.93474 11.7124 9.45261 11.5021 9.92954C11.4634 10.0167 11.4219 10.1039 11.3762 10.1885C11.148 10.6258 10.8464 11.0221 10.4894 11.363L10.4867 11.3656C10.3677 11.4792 10.2418 11.5862 10.1117 11.688C9.98031 11.7897 9.84196 11.8848 9.69946 11.972C8.96346 12.4225 8.08773 12.6854 7.14974 12.6854C6.49813 12.6854 5.87557 12.5586 5.31112 12.3313C5.21981 12.2943 5.1285 12.2547 5.03996 12.2111C4.58203 11.9931 4.16699 11.7051 3.81006 11.3643L3.80729 11.3603C3.68831 11.2467 3.57625 11.1278 3.47111 11.0023C3.36458 10.8768 3.26497 10.7447 3.17367 10.6086C2.70052 9.90576 2.4266 9.07081 2.4266 8.17377V8.17245C2.4266 7.5502 2.55941 6.9557 2.79875 6.41668C2.83748 6.32949 2.87899 6.24229 2.92464 6.15774C3.15291 5.72045 3.45451 5.32411 3.81144 4.98327L3.81421 4.98062C3.93319 4.86701 4.0577 4.76 4.18913 4.65959C4.32056 4.55786 4.4589 4.46274 4.6014 4.37555C5.33325 3.92373 6.20898 3.66214 7.14697 3.66214Z" fill="#494949"/>
</svg>
