<svg width="117" height="55" viewBox="0 0 117 55" fill="none" xmlns="http://www.w3.org/2000/svg">
<path fill-rule="evenodd" clip-rule="evenodd" d="M31.5942 54.0707L25.3989 54.1027C25.303 53.387 25.4486 52.6599 25.8119 52.0395C25.0928 52.4317 24.3024 52.6719 23.4886 52.7457C23.6209 50.4319 20.5984 52.375 21.5793 48.6125C19.6742 49.3996 20.1017 43.7431 20.6351 41.6581C21.8873 36.7628 28.2182 34.4205 29.7795 30.0686C33.7811 18.9106 16.9527 27.0872 17.3151 22.2349C14.8909 22.169 9.59683 22.1116 6.09907 20.7416C8.13493 19.7595 5.01984 19.4071 4.1881 19.3847C4.38934 19.1365 5.06493 18.8517 5.04783 18.5883C1.36517 18.7562 3.07685 16.3515 2.6663 15.5965C2.1201 15.754 1.6273 15.6625 1.19078 15.3221C3.38023 14.8979 0.472948 13.059 0.648082 12.2748C1.51816 8.3792 3.31859 11.0803 5.87785 8.90865C4.54876 9.28291 3.26629 9.18105 2.03048 8.60379C4.08177 9.33233 5.04201 9.14658 4.90974 8.04662C3.82007 8.30262 2.68129 8.24842 1.61899 7.89001C1.91579 7.18313 4.52323 7.18208 5.51657 6.15596C1.65964 5.12371 8.4515 3.11948 10.1352 2.56132C16.0504 0.601524 23.2789 1.70655 29.4064 0.718103C27.8005 2.57591 36.1639 0.830368 38.0454 1.82338C38.0579 2.01504 37.0191 2.44097 36.8348 2.8276C40.0712 1.0542 39.8923 3.27557 42.9503 3.69706C45.139 3.99795 51.1755 2.9684 53.3887 2.30754C53.3276 2.60536 53.1538 2.74079 52.8679 2.7116C55.081 3.22027 56.9813 5.81869 58.5162 5.4913C58.5343 6.35037 58.5525 7.71266 58.163 8.47624C61.8853 7.72475 64.4842 5.14793 67.8586 3.68073C70.7088 2.4415 73.0951 3.02929 74.89 2.20826C73.0814 5.95399 74.28 1.67265 77.5275 3.5173C78.1579 3.87601 78.6362 5.28335 78.2278 5.87846C80.328 5.30722 80.7455 8.53597 79.8206 10.7727C86.7017 8.90448 92.4363 4.39624 99.0307 1.83991C101.497 0.884186 112.492 -1.47663 106.194 1.47111C106.987 2.18143 110.177 0.436043 112.22 1.63526C112.055 1.92587 111.181 2.48142 111.191 2.62773C113.835 2.26945 113.196 2.57611 110.222 4.54189C110.523 4.42683 114.041 2.73869 114.506 3.15299C113.378 3.97404 113.33 4.16228 114.36 3.71784C112.938 4.66377 112.958 4.97101 114.42 4.63957C112.69 4.75189 114.788 7.17364 114.115 8.36113C117.182 7.42812 116.16 8.4466 115.336 10.3176C115.842 10.0313 116.212 10.1306 116.449 10.6163C115.321 10.9628 114.104 13.037 113.372 13.7765C117.195 12.8136 114.231 15.4545 112.657 16.7857C110.239 18.8315 104.519 20.4913 101.637 21.8046L75.9199 33.5165C67.4881 37.3565 58.951 41.0248 50.6533 45.1551C45.2456 47.8459 35.9255 50.3346 31.5942 54.0707Z" fill="#FFB5B5"/>
</svg>
