<svg width="94" height="71" viewBox="0 0 94 71" fill="none" xmlns="http://www.w3.org/2000/svg">
<path fill-rule="evenodd" clip-rule="evenodd" d="M74.6397 16.7769C73.2186 22.7013 78.9682 27.8735 72.595 36.364C81.5041 38.33 92.305 44.7876 93.7736 55.0258C94.2306 58.2121 93.0164 63.6761 88.4178 62.5983C90.694 67.7961 89.8329 67.3469 84.0449 63.6169C85.1845 66.9819 85.7854 71.2151 81.5134 68.0284C81.2065 68.9944 81.7012 69.8021 82.9957 70.4503C76.9386 68.8008 72.5683 68.6177 66.5096 66.1273C59.411 63.2091 53.0215 63.6282 45.4864 63.8148C39.0365 63.9754 12.3175 66.1259 18.9656 50.9578C18.6744 51.2536 18.3729 51.2795 18.0615 51.0363C20.6407 50.4326 20.1457 47.4824 16.7797 47.7758C18.3223 41.831 25.3521 37.8546 26.5866 32.7084C18.661 30.9405 7.34213 30.6267 3.23129 22.5321C0.477791 17.1104 2.36269 20.2353 6.76786 18.2101C-3.5462 14.4933 8.91035 15.8471 0.947453 12.9766C1.84722 9.76574 2.47291 6.93607 5.83327 7.35767C0.250812 5.14671 12.7608 0.67874 15.6746 0.388816C22.4195 -0.283313 30.4891 2.37462 36.9723 3.76785C44.9588 5.48459 52.9203 7.4699 60.7459 9.82208C66.0821 11.4262 70.8756 15.5441 74.6397 16.7769Z" fill="#FFB5B5"/>
</svg>
