<svg width="138" height="63" viewBox="0 0 138 63" fill="none" xmlns="http://www.w3.org/2000/svg">
<path fill-rule="evenodd" clip-rule="evenodd" d="M124.389 3.7288C127.365 6.07574 130.34 8.42267 133.317 10.7683C130.302 13.4815 131.29 13.1786 135.379 15.2267C130.347 16.8902 142.498 23.6255 134.183 23.617C140.695 27.3499 131.229 35.0977 126.124 34.5608C130.175 36.5896 128.033 37.1756 124.752 36.4426C133.689 40.919 122.365 36.9412 119.605 38.1443C124.797 42.8941 109.379 40.6301 107.186 40.5874C93.4092 40.3164 81.9661 42.7393 68.9677 47.7728C50.4051 54.96 29.09 69.2851 8.92873 58.4697C10.4566 57.4673 12.1367 56.7191 13.9039 56.2539C10.2686 54.9724 7.17103 54.9261 4.19771 52.8729C0.0525677 50.0089 9.64764 51.5528 2.57263 48.009C2.88182 46.9871 3.68237 46.5325 4.97396 46.6442C-4.5083 44.5243 5.43314 40.5835 7.71389 36.0301C-5.89174 34.8709 10.4003 33.5236 4.4496 30.5429C6.76044 28.2347 15.147 28.625 9.76597 25.9296C27.094 20.1989 44.7922 14.1111 62.4936 9.09854C71.8352 6.45327 81.3799 3.10235 90.7959 0.965897C104.303 -2.0966 111.156 3.30207 124.389 3.7288Z" fill="#FFA7A7"/>
</svg>
