<svg width="103" height="83" viewBox="0 0 103 83" fill="none" xmlns="http://www.w3.org/2000/svg">
<path fill-rule="evenodd" clip-rule="evenodd" d="M61.548 13.6869C61.6325 18.0367 69.5008 18.8476 66.0508 22.8973C69.5753 21.2842 70.3587 21.7503 68.4021 24.2963C71.3214 23.6473 72.6033 28.5928 71.7663 31.3033C69.3288 39.1956 60.5097 41.6747 54.8022 46.928C68.594 45.9094 88.1254 36.0277 97.8658 44.8781C104.21 50.643 103.611 56.0955 95.8413 62.5237C88.996 68.1865 78.7833 75.6938 71.2587 80.1587C65.5292 83.558 62.2442 83.7653 57.237 79.6561C55.3067 78.0727 50.5194 74.3207 55.3024 74.4147C54.1283 73.3695 53.9174 72.1489 54.6689 70.7529C44.1058 71.6968 27.2141 83.7165 16.9664 77.3358C17.0297 76.4598 17.7371 76.1602 19.087 76.4374C15.2862 76.9263 7.59501 73.7602 5.1829 71.2392C2.39121 68.3216 1.58831 61.8753 0.226485 62.0015C4.97992 49.7613 19.5586 48.5468 27.5211 39.3188C25.9615 39.8568 24.2521 33.0271 22.0448 30.0906C20.9323 28.6103 18.6047 25.8679 17.2292 26.1409C17.8834 22.5729 22.1305 18.3938 15.9946 20.4343C16.182 19.1486 16.9163 18.103 18.1991 17.2958C11.9663 19.0608 57.2998 -9.59577 51.0864 4.98927C52.0208 4.40933 53.0436 4.16791 54.1512 4.26497C54.0218 5.13503 53.6594 5.92765 53.0634 6.64333C57.0557 4.53164 57.4976 13.5148 61.548 13.6869Z" fill="#FFB5B5"/>
</svg>
