<svg width="1920" height="535" viewBox="0 0 1920 535" fill="none" xmlns="http://www.w3.org/2000/svg">
<path opacity="0.2" fill-rule="evenodd" clip-rule="evenodd" d="M1870.31 411.08C1833.73 439.528 1766.13 479.159 1682.12 505.662C1598.11 532.166 1497.65 545.555 1395.39 521.465C1363.39 513.929 1340.13 502.071 1323.28 487.148C1306.42 472.222 1296 454.257 1289.65 434.562C1278.73 400.686 1279.84 361.626 1280.91 324.055C1281.09 317.996 1281.26 311.976 1281.38 306.023C1281.81 284.559 1281.57 263.955 1278.33 245.454C1275.08 226.958 1268.84 210.607 1257.28 197.615C1234.19 171.65 1189.65 158.868 1104.5 169.816C976.357 186.293 895.092 237.851 826.243 281.532L826.243 281.533C803.635 295.876 782.367 309.37 761.217 320.494C718.441 342.991 676.168 355.758 624.391 346.053C572.648 336.355 511.498 304.228 430.909 237.148C350.427 170.158 290.09 156.196 240.783 171.498C191.405 186.822 152.868 231.545 116.135 282.515C107.263 294.827 98.4958 307.503 89.7085 320.208L89.7075 320.21L89.7071 320.21C62.1659 360.031 34.4241 400.143 2.59405 430.244C-18.4145 450.112 -41.2385 465.658 -67.0104 473.905C-92.791 482.154 -121.483 483.087 -154.198 473.787L-153.852 472.569C-121.36 481.805 -92.9239 480.867 -67.3962 472.699C-41.8599 464.528 -19.1955 449.109 1.72422 429.325C33.4489 399.322 61.0819 359.37 88.6055 319.575L88.6061 319.574C97.4079 306.848 106.199 294.138 115.108 281.775C151.828 230.822 190.582 185.752 240.408 170.288C290.307 154.803 351.088 169.061 431.719 236.175C512.242 303.2 573.193 335.169 624.624 344.809C676.023 354.443 717.998 341.794 760.627 319.373C781.659 308.312 802.855 294.863 825.414 280.55L825.415 280.549C894.296 236.846 975.887 185.077 1104.34 168.561C1189.56 157.603 1234.69 170.308 1258.23 196.774C1269.99 209.999 1276.3 226.599 1279.57 245.235C1282.84 263.867 1283.08 284.576 1282.64 306.049C1282.52 312.022 1282.35 318.054 1282.18 324.117L1282.18 324.125C1281.11 361.713 1280.01 400.524 1290.85 434.174C1297.14 453.689 1307.45 471.447 1324.11 486.2C1340.78 500.955 1363.84 512.733 1395.68 520.233C1497.66 544.256 1597.88 530.912 1681.74 504.455C1765.61 477.996 1833.07 438.436 1869.53 410.081L1870.31 411.08ZM1699.15 451.065C1783.16 424.562 1850.76 384.931 1887.33 356.483L1886.55 355.484C1850.1 383.84 1782.63 423.4 1698.77 449.858C1614.9 476.315 1514.68 489.66 1412.7 465.636C1380.86 458.137 1357.8 446.359 1341.14 431.603C1324.48 416.851 1314.17 399.093 1307.88 379.578C1297.03 345.927 1298.13 307.117 1299.2 269.528L1299.2 269.52L1299.2 269.516C1299.38 263.454 1299.55 257.424 1299.67 251.452C1300.1 229.979 1299.87 209.27 1296.6 190.639C1293.33 172.002 1287.01 155.402 1275.25 142.177C1251.71 115.711 1206.59 103.006 1121.36 113.964C992.911 130.48 911.32 182.249 842.439 225.953L842.438 225.953L842.438 225.954C819.879 240.267 798.683 253.715 777.652 264.777C735.022 287.197 693.047 299.847 641.649 290.212C590.217 280.572 529.266 248.604 448.743 181.579C368.113 114.464 307.331 100.207 257.432 115.692C207.606 131.155 168.853 176.226 132.133 227.179C123.224 239.54 114.434 252.249 105.633 264.974L105.63 264.978L105.63 264.978C78.1061 304.773 50.4731 344.726 18.7485 374.728C-2.17123 394.512 -24.8356 409.931 -50.372 418.102C-75.8996 426.271 -104.336 427.209 -136.828 417.973L-137.174 419.19C-104.458 428.49 -75.7667 427.557 -49.9861 419.308C-24.2143 411.061 -1.39026 395.516 19.6183 375.648C51.4484 345.546 79.1902 305.435 106.731 265.613L106.732 265.613L106.733 265.612C115.52 252.906 124.287 240.23 133.16 227.919C169.892 176.948 208.429 132.225 257.808 116.901C307.114 101.599 367.452 115.561 447.933 182.552C528.522 249.632 589.673 281.758 641.415 291.457C693.192 301.162 735.465 288.395 778.241 265.897C799.391 254.773 820.66 241.279 843.268 226.936C912.117 183.255 993.381 131.696 1121.52 115.22C1206.67 104.272 1251.21 117.053 1274.3 143.019C1285.86 156.01 1292.11 172.362 1295.35 190.858C1298.6 209.359 1298.84 229.962 1298.4 251.427C1298.28 257.38 1298.11 263.4 1297.94 269.459C1296.87 307.029 1295.75 346.09 1306.67 379.966C1313.02 399.661 1323.44 417.625 1340.3 432.551C1357.16 447.475 1380.42 459.332 1412.41 466.868C1514.68 490.958 1615.14 477.57 1699.15 451.065ZM1904.35 301.887C1867.78 330.335 1800.18 369.966 1716.17 396.469C1632.16 422.973 1531.7 436.362 1429.43 412.272C1397.44 404.736 1374.18 392.878 1357.32 377.955C1340.46 363.029 1330.05 345.064 1323.7 325.369C1312.78 291.494 1313.89 252.433 1314.96 214.863L1314.96 214.862C1315.14 208.803 1315.31 202.783 1315.43 196.83C1315.86 175.366 1315.62 154.762 1312.38 136.261C1309.13 117.765 1302.88 101.413 1291.33 88.4223C1268.23 62.4567 1223.69 49.6753 1138.55 60.6232C1010.41 77.0997 929.141 128.658 860.292 172.339L860.291 172.34C837.683 186.683 816.415 200.177 795.265 211.3C752.489 233.798 710.216 246.565 658.44 236.86C606.697 227.162 545.546 195.035 464.957 127.955C384.476 60.9649 324.138 47.0029 274.832 62.3045C225.454 77.6285 186.917 122.352 150.184 173.322C141.312 185.633 132.545 198.308 123.759 211.012L123.756 211.016C96.2146 250.838 68.4728 290.949 36.6425 321.051C15.634 340.919 -7.19001 356.465 -32.9619 364.711C-58.7425 372.961 -87.4342 373.894 -120.15 364.594L-119.804 363.376C-87.3118 372.612 -58.8754 371.674 -33.3477 363.506C-7.81137 355.335 14.853 339.916 35.7727 320.132C67.4974 290.129 95.1304 250.176 122.654 210.382C131.456 197.655 140.247 184.945 149.157 172.582C185.877 121.629 224.63 76.5585 274.457 61.0954C324.355 45.6101 385.137 59.8679 465.767 126.982C546.29 194.007 607.241 225.976 658.673 235.616C710.071 245.25 752.047 232.6 794.676 210.18C815.708 199.118 836.904 185.67 859.464 171.356C928.344 127.652 1009.94 75.8837 1138.39 59.3676C1223.61 48.4095 1268.73 61.1148 1292.27 87.5809C1304.04 100.806 1310.35 117.406 1313.62 136.042C1316.89 154.674 1317.13 175.383 1316.69 196.855C1316.57 202.813 1316.4 208.83 1316.23 214.878L1316.23 214.932L1316.23 214.934C1315.16 252.522 1314.06 291.331 1324.9 324.981C1331.19 344.496 1341.5 362.254 1358.16 377.007C1374.83 391.762 1397.89 403.54 1429.72 411.039C1531.71 435.063 1631.93 421.719 1715.79 395.262C1799.66 368.803 1867.12 329.243 1903.58 300.888L1904.35 301.887ZM1921.38 247.29C1884.81 275.738 1817.2 315.369 1733.2 341.872C1649.18 368.377 1548.72 381.765 1446.46 357.675C1414.47 350.139 1391.2 338.282 1374.35 323.358C1357.49 308.432 1347.07 290.468 1340.72 270.773C1329.8 236.897 1330.92 197.836 1331.99 160.266C1332.16 154.207 1332.33 148.187 1332.45 142.233C1332.88 120.769 1332.65 100.166 1329.4 81.6646C1326.15 63.1688 1319.91 46.8168 1308.35 33.8257C1285.26 7.86011 1240.72 -4.92134 1155.57 6.02663C1027.43 22.5031 946.165 74.0615 877.316 117.743L877.314 117.744C854.707 132.087 833.439 145.58 812.289 156.704C769.513 179.201 727.241 191.969 675.464 182.264C623.721 172.565 562.571 140.439 481.982 73.3588C401.5 6.36837 341.162 -7.59369 291.856 7.70793C242.478 23.0319 203.941 67.7551 167.208 118.726C158.335 131.038 149.568 143.714 140.78 156.42L140.779 156.421L140.779 156.421L140.779 156.422C113.238 196.243 85.4965 236.353 53.6668 266.455C32.6582 286.323 9.83422 301.868 -15.9377 310.115C-41.7182 318.364 -70.4099 319.297 -103.126 309.997L-102.779 308.78C-70.2875 318.016 -41.8511 317.078 -16.3235 308.909C9.21289 300.738 31.8773 285.319 52.797 265.535C84.5216 235.533 112.155 195.58 139.678 155.785L139.681 155.782C148.482 143.056 157.272 130.348 166.181 117.985C202.901 67.0326 241.654 21.962 291.481 6.49886C341.379 -8.98649 402.161 5.27136 482.791 72.3858C563.314 139.411 624.265 171.379 675.697 181.019C727.095 190.653 769.071 178.004 811.7 155.583C832.732 144.522 853.928 131.073 876.488 116.76C945.368 73.0559 1026.96 21.2871 1155.41 4.77099C1240.64 -6.18714 1285.76 6.51819 1309.3 32.9843C1321.06 46.209 1327.38 62.8091 1330.65 81.4457C1333.92 100.077 1334.15 120.786 1333.72 142.259C1333.6 148.231 1333.43 154.261 1333.25 160.323L1333.25 160.327L1333.25 160.331L1333.25 160.335C1332.18 197.924 1331.08 236.734 1341.93 270.384C1348.22 289.9 1358.52 307.658 1375.19 322.41C1391.85 337.166 1414.91 348.943 1446.75 356.443C1548.73 380.466 1648.95 367.122 1732.82 340.665C1816.68 314.207 1884.15 274.647 1920.6 246.291L1921.38 247.29Z" fill="url(#paint0_linear_2_789)"/>
<defs>
<linearGradient id="paint0_linear_2_789" x1="49.1825" y1="230.861" x2="1852.82" y2="-62.7708" gradientUnits="userSpaceOnUse">
<stop offset="0.310417" stop-color="#4535AF" stop-opacity="0.7"/>
<stop offset="0.461458" stop-color="#F8EFF4" stop-opacity="0.1"/>
<stop offset="0.851637" stop-color="#4535AF" stop-opacity="0.8"/>
</linearGradient>
</defs>
</svg>
