<svg width="12" height="12" viewBox="0 0 12 12" fill="none" xmlns="http://www.w3.org/2000/svg">
<path d="M9.48378 7.43356C9.23811 7.17776 8.94179 7.04099 8.62774 7.04099C8.31622 7.04099 8.01736 7.17523 7.76156 7.43103L6.96123 8.22882C6.89538 8.19336 6.82953 8.16044 6.76622 8.12751C6.67504 8.08193 6.58893 8.03887 6.51548 7.99328C5.76581 7.51714 5.08451 6.89663 4.43108 6.09377C4.1145 5.69361 3.90175 5.35676 3.74726 5.01485C3.95494 4.8249 4.14742 4.62735 4.33484 4.4374C4.40576 4.36648 4.47667 4.29303 4.54759 4.22212C5.07945 3.69025 5.07945 3.00137 4.54759 2.4695L3.85616 1.77808C3.77765 1.69957 3.6966 1.61852 3.62062 1.53748C3.46866 1.38045 3.3091 1.21836 3.14448 1.0664C2.89881 0.823259 2.60502 0.694092 2.29603 0.694092C1.98704 0.694092 1.68819 0.823259 1.43492 1.0664C1.43239 1.06893 1.43239 1.06893 1.42985 1.07146L0.568742 1.94017C0.244558 2.26435 0.0596726 2.65945 0.0191496 3.11787C-0.0416347 3.85741 0.176176 4.5463 0.343333 4.99712C0.753628 6.1039 1.36654 7.12964 2.28084 8.22882C3.39015 9.55341 4.72487 10.5994 6.24955 11.3364C6.83207 11.6125 7.6096 11.9392 8.47831 11.9949C8.5315 11.9975 8.58721 12 8.63787 12C9.22292 12 9.71426 11.7898 10.0992 11.3719C10.1018 11.3668 10.1068 11.3643 10.1094 11.3592C10.2411 11.1997 10.393 11.0553 10.5526 10.9008C10.6615 10.797 10.7729 10.6881 10.8818 10.5741C11.1326 10.3132 11.2643 10.0093 11.2643 9.69778C11.2643 9.38372 11.13 9.08233 10.8742 8.82907L9.48378 7.43356ZM10.3905 10.1005C10.388 10.1005 10.388 10.103 10.3905 10.1005C10.2917 10.2068 10.1904 10.3031 10.0815 10.4095C9.91687 10.5665 9.74972 10.7311 9.59269 10.916C9.33689 11.1895 9.0355 11.3187 8.6404 11.3187C8.60241 11.3187 8.56189 11.3187 8.5239 11.3162C7.77169 11.268 7.07267 10.9742 6.54841 10.7235C5.11491 10.0296 3.85616 9.04434 2.81017 7.79573C1.94652 6.7548 1.36907 5.79238 0.986634 4.75905C0.751095 4.12841 0.664984 3.63707 0.702974 3.17359C0.728301 2.87726 0.842272 2.63159 1.05248 2.42138L1.91613 1.55774C2.04023 1.44123 2.17193 1.37792 2.3011 1.37792C2.46066 1.37792 2.58982 1.47416 2.67087 1.5552C2.6734 1.55774 2.67593 1.56027 2.67847 1.5628C2.83296 1.70716 2.97986 1.85659 3.13435 2.01615C3.21286 2.0972 3.29391 2.17824 3.37495 2.26182L4.06638 2.95324C4.33484 3.22171 4.33484 3.46991 4.06638 3.73838C3.99293 3.81182 3.92201 3.88527 3.84857 3.95619C3.63582 4.174 3.43321 4.37661 3.21286 4.57416C3.2078 4.57923 3.20273 4.58176 3.2002 4.58682C2.98239 4.80464 3.02291 5.01738 3.0685 5.16174C3.07103 5.16934 3.07357 5.17694 3.0761 5.18454C3.25592 5.62016 3.50919 6.03045 3.89415 6.51926L3.89669 6.52179C4.59571 7.38291 5.33272 8.05407 6.14571 8.5682C6.24955 8.63405 6.35592 8.68724 6.45723 8.73789C6.54841 8.78348 6.63452 8.82653 6.70796 8.87212C6.71809 8.87719 6.72823 8.88479 6.73836 8.88985C6.82447 8.93291 6.90551 8.95317 6.98909 8.95317C7.1993 8.95317 7.331 8.82147 7.37406 8.77841L8.24024 7.91224C8.32635 7.82612 8.46311 7.72228 8.62267 7.72228C8.7797 7.72228 8.90886 7.82106 8.98738 7.90717C8.98991 7.9097 8.98991 7.9097 8.99244 7.91224L10.388 9.30774C10.6488 9.56608 10.6488 9.83201 10.3905 10.1005Z" fill="#494949"/>
<path d="M6.48511 2.85448C7.14867 2.96592 7.75145 3.27997 8.23266 3.76118C8.71387 4.24239 9.02539 4.84517 9.13936 5.50873C9.16722 5.67589 9.31159 5.79239 9.47621 5.79239C9.49647 5.79239 9.5142 5.78986 9.53446 5.78733C9.72188 5.75693 9.84598 5.57965 9.81559 5.39223C9.67882 4.58937 9.29892 3.85742 8.71894 3.27744C8.13895 2.69745 7.40701 2.31755 6.60415 2.18079C6.41673 2.15039 6.24197 2.2745 6.20905 2.45938C6.17612 2.64427 6.29769 2.82409 6.48511 2.85448Z" fill="#494949"/>
<path d="M11.9861 5.29345C11.7607 3.97139 11.1377 2.76837 10.1803 1.81102C9.22294 0.853661 8.01992 0.230621 6.69786 0.00521263C6.51298 -0.0277122 6.33822 0.0989219 6.3053 0.283808C6.2749 0.471226 6.399 0.645981 6.58642 0.678906C7.76665 0.878988 8.84304 1.43871 9.69909 2.29222C10.5551 3.14827 11.1123 4.22466 11.3124 5.40489C11.3403 5.57205 11.4846 5.68855 11.6493 5.68855C11.6695 5.68855 11.6872 5.68602 11.7075 5.68349C11.8924 5.65563 12.019 5.47834 11.9861 5.29345Z" fill="#494949"/>
</svg>
