<svg width="25" height="22" viewBox="0 0 25 22" fill="none" xmlns="http://www.w3.org/2000/svg">
<path d="M17.1094 0.734375C14.1191 0.734375 11.6875 3.16602 11.6875 6.15625C11.6875 6.33594 11.7324 6.51172 11.75 6.6875C8.05274 6.33398 4.7832 4.55273 2.5625 1.82812C2.45899 1.69727 2.29883 1.62695 2.13086 1.63867C1.96485 1.65039 1.81641 1.74609 1.73438 1.89062C1.26758 2.69336 1 3.61719 1 4.60938C1 5.81055 1.42969 6.91016 2.09375 7.8125C1.96485 7.75586 1.82422 7.72461 1.70313 7.65625C1.54883 7.57422 1.36328 7.57812 1.21289 7.66797C1.0625 7.75781 0.970704 7.91992 0.968751 8.09375V8.15625C0.968751 9.99805 1.92188 11.5977 3.32813 12.5781C3.3125 12.5762 3.29688 12.582 3.28125 12.5781C3.10938 12.5488 2.93555 12.6094 2.82031 12.7402C2.70508 12.8711 2.66797 13.0527 2.71875 13.2188C3.27735 14.9551 4.70313 16.2812 6.46875 16.7656C5.0625 17.6016 3.43164 18.0938 1.67188 18.0938C1.29102 18.0938 0.925783 18.0742 0.562501 18.0312C0.328126 18 0.103517 18.1367 0.0253918 18.3594C-0.0546864 18.582 0.0332043 18.8301 0.234376 18.9531C2.49024 20.4004 5.16797 21.25 8.04688 21.25C12.7129 21.25 16.373 19.3008 18.8281 16.5156C21.2832 13.7305 22.5625 10.1133 22.5625 6.73438C22.5625 6.5918 22.5508 6.45312 22.5469 6.3125C23.4629 5.61133 24.2813 4.78906 24.9219 3.82812C25.0488 3.64258 25.0352 3.39453 24.8887 3.22266C24.7441 3.05078 24.5 2.99805 24.2969 3.09375C24.0391 3.20898 23.7383 3.2207 23.4688 3.3125C23.8242 2.83789 24.1289 2.32617 24.3125 1.75C24.375 1.55273 24.3066 1.33594 24.1445 1.20703C23.9824 1.08008 23.7559 1.06445 23.5781 1.17188C22.7246 1.67773 21.7793 2.0332 20.7813 2.25C19.8125 1.34375 18.5371 0.734375 17.1094 0.734375ZM17.1094 1.73438C18.3848 1.73438 19.5371 2.2793 20.3438 3.14062C20.4648 3.26562 20.6426 3.31836 20.8125 3.28125C21.4648 3.15234 22.084 2.96289 22.6875 2.71875C22.3398 3.1875 21.9102 3.58789 21.4063 3.89062C21.1777 4.00195 21.0703 4.26562 21.1543 4.50586C21.2363 4.74414 21.4863 4.88281 21.7344 4.82812C22.2344 4.76758 22.6797 4.56445 23.1563 4.4375C22.7285 4.90039 22.2598 5.31836 21.75 5.6875C21.6113 5.78906 21.5352 5.95312 21.5469 6.125C21.5547 6.32812 21.5625 6.5293 21.5625 6.73438C21.5625 9.85938 20.3633 13.252 18.0781 15.8438C15.793 18.4355 12.4375 20.25 8.04688 20.25C6.05274 20.25 4.16992 19.8086 2.46875 19.0312C4.57813 18.8691 6.52344 18.123 8.09375 16.8906C8.25781 16.7598 8.32227 16.541 8.25586 16.3418C8.18945 16.1426 8.00586 16.0059 7.79688 16C6.14844 15.9707 4.76758 15.0117 4.03125 13.6562C4.0586 13.6562 4.08203 13.6562 4.10938 13.6562C4.60352 13.6562 5.0918 13.5938 5.54688 13.4688C5.76563 13.4043 5.91602 13.2012 5.9082 12.9727C5.90039 12.7441 5.73828 12.5488 5.51563 12.5C3.73633 12.1406 2.40235 10.6914 2.09375 8.89062C2.59766 9.06445 3.11328 9.20117 3.67188 9.21875C3.90039 9.23242 4.10742 9.08984 4.17774 8.87305C4.24805 8.65625 4.16211 8.41797 3.96875 8.29688C2.78125 7.50195 2 6.14844 2 4.60938C2 4.03906 2.14844 3.51562 2.34375 3.01562C4.84375 5.75977 8.34375 7.58203 12.2969 7.78125C12.4531 7.78906 12.6055 7.72461 12.707 7.60547C12.8086 7.48437 12.8477 7.32422 12.8125 7.17188C12.7363 6.84766 12.6875 6.50391 12.6875 6.15625C12.6875 3.70703 14.6602 1.73438 17.1094 1.73438Z" fill="white"/>
</svg>
