<svg width="13" height="14" viewBox="0 0 13 14" fill="none" xmlns="http://www.w3.org/2000/svg">
<g clip-path="url(#clip0_117_233)">
<path fill-rule="evenodd" clip-rule="evenodd" d="M1.85606 0H8.57782C9.06973 0.00120361 9.54116 0.208051 9.889 0.575293C10.2368 0.942536 10.4327 1.44028 10.4339 1.95964V6.32894C10.4327 6.8483 10.2368 7.34604 9.889 7.71328C9.54116 8.08052 9.06973 8.28737 8.57782 8.28857H5.06317L2.24562 10.8464C2.19897 10.8898 2.14112 10.9176 2.07945 10.9261C2.01778 10.9347 1.9551 10.9236 1.8994 10.8944C1.8437 10.8652 1.79751 10.8191 1.76673 10.7621C1.73594 10.705 1.72196 10.6395 1.72657 10.5741L1.87657 8.28743H1.85606C1.36434 8.28623 0.893069 8.07954 0.545268 7.71255C0.197466 7.34555 0.00142479 6.8481 0 6.32894L0 1.95964C0.00114 1.44028 0.197055 0.942536 0.544888 0.575293C0.89272 0.208051 1.36416 0.00120361 1.85606 0V0ZM5.6761 5.08708H4.45563V5.03467C4.44988 4.85363 4.4736 4.67289 4.52577 4.50033C4.57497 4.36227 4.64816 4.23515 4.7416 4.12549C4.937 3.91346 5.14536 3.71517 5.36532 3.5319C5.5387 3.37999 5.62538 3.24327 5.62538 3.12174C5.6278 3.06802 5.61943 3.01437 5.60084 2.9643C5.58224 2.91424 5.55383 2.86888 5.51747 2.83122C5.42801 2.75542 5.3146 2.71836 5.20022 2.72754C5.13032 2.72526 5.06074 2.73837 4.9959 2.76603C4.93107 2.79368 4.87239 2.83528 4.82361 2.88818C4.72325 2.993 4.65958 3.17985 4.63261 3.44303L3.3884 3.27555C3.4126 2.83485 3.58924 2.41887 3.88478 2.10661C4.17255 1.8119 4.61822 1.66455 5.2218 1.66455C5.68905 1.66455 6.06458 1.76709 6.3527 1.97217C6.5332 2.08828 6.68202 2.25193 6.78456 2.44707C6.88709 2.64221 6.93982 2.86214 6.93758 3.08529C6.93782 3.28321 6.88588 3.4773 6.78758 3.64583C6.61942 3.90001 6.41097 4.12163 6.17141 4.30094C6.01153 4.41986 5.87272 4.56757 5.76135 4.7373C5.70084 4.8437 5.6712 4.9665 5.6761 5.09049V5.08708ZM4.41355 5.50521H5.71927V6.49414H4.41355V5.50521ZM11.5238 3.1901C11.9385 3.27552 12.3123 3.51015 12.5815 3.85399C12.8507 4.19783 12.9986 4.62959 13 5.07568V9.44271C12.9986 9.9514 12.8066 10.4388 12.4659 10.7985C12.1252 11.1582 11.6635 11.361 11.1817 11.3625H11.1148L11.268 13.6912C11.2715 13.748 11.2591 13.8045 11.2324 13.8539C11.2056 13.9032 11.1657 13.9431 11.1176 13.9686C11.0695 13.9941 11.0153 14.0041 10.9618 13.9974C10.9084 13.9906 10.858 13.9673 10.817 13.9305L7.98539 11.2873H4.26139L6.09587 9.31624H9.98066C10.3896 9.31504 10.7814 9.143 11.0706 8.83772C11.3597 8.53244 11.5226 8.11874 11.5238 7.68701V3.31657C11.5238 3.27327 11.5238 3.22998 11.5238 3.18783V3.1901ZM8.57674 0.660807H1.85606C1.53015 0.662008 1.21791 0.799234 0.987451 1.04255C0.756993 1.28587 0.62702 1.61553 0.625882 1.95964V6.32894C0.625594 6.67403 0.754938 7.00515 0.98555 7.2497C1.21616 7.49425 1.52922 7.63226 1.85606 7.63346H2.23699C2.31947 7.6396 2.39629 7.67996 2.45068 7.74571C2.50507 7.81146 2.5326 7.89726 2.52727 7.98438L2.40533 9.8335L4.72973 7.72347C4.78704 7.66299 4.86452 7.62863 4.94555 7.62777H8.57674C8.90266 7.62657 9.2149 7.48934 9.44535 7.24602C9.67581 7.0027 9.80579 6.67304 9.80692 6.32894V1.95964C9.80579 1.61553 9.67581 1.28587 9.44535 1.04255C9.2149 0.799234 8.90266 0.662008 8.57674 0.660807Z" fill="#494949"/>
</g>
<defs>
<clipPath id="clip0_117_233">
<rect width="13" height="14" fill="white"/>
</clipPath>
</defs>
</svg>
